<svg width="1947" height="1085" viewBox="0 0 1947 1085" fill="none" xmlns="http://www.w3.org/2000/svg">
<g clip-path="url(#clip0_826_1146)">
<rect width="1947" height="1085" fill="#F6F6FF"/>
<path d="M59 1085H0V1044H59V1085ZM177 1085H118V1044H177V1085ZM295 1085H236V1044H295V1085ZM413 1085H354V1044H413V1085ZM531 1085H472V1044H531V1085ZM649 1085H590V1044H649V1085ZM767 1085H708V1044H767V1085ZM885 1085H826V1044H885V1085ZM1003 1085H944V1044H1003V1085ZM1121 1085H1062V1044H1121V1085ZM1239 1085H1180V1044H1239V1085ZM1357 1085H1298V1044H1357V1085ZM1475 1085H1416V1044H1475V1085ZM1593 1085H1534V1044H1593V1085ZM1711 1085H1652V1044H1711V1085ZM1829 1085H1770V1044H1829V1085ZM1947 1085H1888V1044H1947V1085ZM118 1044H59V985H118V1044ZM236 1044H177V985H236V1044ZM354 1044H295V985H354V1044ZM472 1044H413V985H472V1044ZM590 1044H531V985H590V1044ZM708 1044H649V985H708V1044ZM826 1044H767V985H826V1044ZM944 1044H885V985H944V1044ZM1062 1044H1003V985H1062V1044ZM1180 1044H1121V985H1180V1044ZM1298 1044H1239V985H1298V1044ZM1416 1044H1357V985H1416V1044ZM1534 1044H1475V985H1534V1044ZM1652 1044H1593V985H1652V1044ZM1770 1044H1711V985H1770V1044ZM1888 1044H1829V985H1888V1044ZM59 985H0V926H59V985ZM177 985H118V926H177V985ZM295 985H236V926H295V985ZM413 985H354V926H413V985ZM531 985H472V926H531V985ZM649 985H590V926H649V985ZM767 985H708V926H767V985ZM885 985H826V926H885V985ZM1003 985H944V926H1003V985ZM1121 985H1062V926H1121V985ZM1239 985H1180V926H1239V985ZM1357 985H1298V926H1357V985ZM1475 985H1416V926H1475V985ZM1593 985H1534V926H1593V985ZM1711 985H1652V926H1711V985ZM1829 985H1770V926H1829V985ZM1947 985H1888V926H1947V985ZM118 926H59V867H118V926ZM236 926H177V867H236V926ZM354 926H295V867H354V926ZM472 926H413V867H472V926ZM590 926H531V867H590V926ZM708 926H649V867H708V926ZM826 926H767V867H826V926ZM944 926H885V867H944V926ZM1062 926H1003V867H1062V926ZM1180 926H1121V867H1180V926ZM1298 926H1239V867H1298V926ZM1416 926H1357V867H1416V926ZM1534 926H1475V867H1534V926ZM1652 926H1593V867H1652V926ZM1770 926H1711V867H1770V926ZM1888 926H1829V867H1888V926ZM59 867H0V808H59V867ZM177 867H118V808H177V867ZM295 867H236V808H295V867ZM413 867H354V808H413V867ZM531 867H472V808H531V867ZM649 867H590V808H649V867ZM767 867H708V808H767V867ZM885 867H826V808H885V867ZM1003 867H944V808H1003V867ZM1121 867H1062V808H1121V867ZM1239 867H1180V808H1239V867ZM1357 867H1298V808H1357V867ZM1475 867H1416V808H1475V867ZM1593 867H1534V808H1593V867ZM1711 867H1652V808H1711V867ZM1829 867H1770V808H1829V867ZM1947 867H1888V808H1947V867ZM118 808H59V749H118V808ZM236 808H177V749H236V808ZM354 808H295V749H354V808ZM472 808H413V749H472V808ZM590 808H531V749H590V808ZM708 808H649V749H708V808ZM826 808H767V749H826V808ZM944 808H885V749H944V808ZM1062 808H1003V749H1062V808ZM1180 808H1121V749H1180V808ZM1298 808H1239V749H1298V808ZM1416 808H1357V749H1416V808ZM1534 808H1475V749H1534V808ZM1652 808H1593V749H1652V808ZM1770 808H1711V749H1770V808ZM1888 808H1829V749H1888V808ZM59 749H0V690H59V749ZM177 749H118V690H177V749ZM295 749H236V690H295V749ZM413 749H354V690H413V749ZM531 749H472V690H531V749ZM649 749H590V690H649V749ZM767 749H708V690H767V749ZM885 749H826V690H885V749ZM1003 749H944V690H1003V749ZM1121 749H1062V690H1121V749ZM1239 749H1180V690H1239V749ZM1357 749H1298V690H1357V749ZM1475 749H1416V690H1475V749ZM1593 749H1534V690H1593V749ZM1711 749H1652V690H1711V749ZM1829 749H1770V690H1829V749ZM1947 749H1888V690H1947V749ZM118 690H59V631H118V690ZM236 690H177V631H236V690ZM354 690H295V631H354V690ZM472 690H413V631H472V690ZM590 690H531V631H590V690ZM708 690H649V631H708V690ZM826 690H767V631H826V690ZM944 690H885V631H944V690ZM1062 690H1003V631H1062V690ZM1180 690H1121V631H1180V690ZM1298 690H1239V631H1298V690ZM1416 690H1357V631H1416V690ZM1534 690H1475V631H1534V690ZM1652 690H1593V631H1652V690ZM1770 690H1711V631H1770V690ZM1888 690H1829V631H1888V690ZM59 631H0V572H59V631ZM177 631H118V572H177V631ZM295 631H236V572H295V631ZM413 631H354V572H413V631ZM531 631H472V572H531V631ZM649 631H590V572H649V631ZM767 631H708V572H767V631ZM885 631H826V572H885V631ZM1003 631H944V572H1003V631ZM1121 631H1062V572H1121V631ZM1239 631H1180V572H1239V631ZM1357 631H1298V572H1357V631ZM1475 631H1416V572H1475V631ZM1593 631H1534V572H1593V631ZM1711 631H1652V572H1711V631ZM1829 631H1770V572H1829V631ZM1947 631H1888V572H1947V631ZM118 572H59V513H118V572ZM236 572H177V513H236V572ZM354 572H295V513H354V572ZM472 572H413V513H472V572ZM590 572H531V513H590V572ZM708 572H649V513H708V572ZM826 572H767V513H826V572ZM944 572H885V513H944V572ZM1062 572H1003V513H1062V572ZM1180 572H1121V513H1180V572ZM1298 572H1239V513H1298V572ZM1416 572H1357V513H1416V572ZM1534 572H1475V513H1534V572ZM1652 572H1593V513H1652V572ZM1770 572H1711V513H1770V572ZM1888 572H1829V513H1888V572ZM59 513H0V454H59V513ZM177 513H118V454H177V513ZM295 513H236V454H295V513ZM413 513H354V454H413V513ZM531 513H472V454H531V513ZM649 513H590V454H649V513ZM767 513H708V454H767V513ZM885 513H826V454H885V513ZM1003 513H944V454H1003V513ZM1121 513H1062V454H1121V513ZM1239 513H1180V454H1239V513ZM1357 513H1298V454H1357V513ZM1475 513H1416V454H1475V513ZM1593 513H1534V454H1593V513ZM1711 513H1652V454H1711V513ZM1829 513H1770V454H1829V513ZM1947 513H1888V454H1947V513ZM118 454H59V395H118V454ZM236 454H177V395H236V454ZM354 454H295V395H354V454ZM472 454H413V395H472V454ZM590 454H531V395H590V454ZM708 454H649V395H708V454ZM826 454H767V395H826V454ZM944 454H885V395H944V454ZM1062 454H1003V395H1062V454ZM1180 454H1121V395H1180V454ZM1298 454H1239V395H1298V454ZM1416 454H1357V395H1416V454ZM1534 454H1475V395H1534V454ZM1652 454H1593V395H1652V454ZM1770 454H1711V395H1770V454ZM1888 454H1829V395H1888V454ZM59 395H0V336H59V395ZM177 395H118V336H177V395ZM295 395H236V336H295V395ZM413 395H354V336H413V395ZM531 395H472V336H531V395ZM649 395H590V336H649V395ZM767 395H708V336H767V395ZM885 395H826V336H885V395ZM1003 395H944V336H1003V395ZM1121 395H1062V336H1121V395ZM1239 395H1180V336H1239V395ZM1357 395H1298V336H1357V395ZM1475 395H1416V336H1475V395ZM1593 395H1534V336H1593V395ZM1711 395H1652V336H1711V395ZM1829 395H1770V336H1829V395ZM1947 395H1888V336H1947V395ZM118 336H59V277H118V336ZM236 336H177V277H236V336ZM354 336H295V277H354V336ZM472 336H413V277H472V336ZM590 336H531V277H590V336ZM708 336H649V277H708V336ZM826 336H767V277H826V336ZM944 336H885V277H944V336ZM1062 336H1003V277H1062V336ZM1180 336H1121V277H1180V336ZM1298 336H1239V277H1298V336ZM1416 336H1357V277H1416V336ZM1534 336H1475V277H1534V336ZM1652 336H1593V277H1652V336ZM1770 336H1711V277H1770V336ZM1888 336H1829V277H1888V336ZM59 277H0V218H59V277ZM177 277H118V218H177V277ZM295 277H236V218H295V277ZM413 277H354V218H413V277ZM531 277H472V218H531V277ZM649 277H590V218H649V277ZM767 277H708V218H767V277ZM885 277H826V218H885V277ZM1003 277H944V218H1003V277ZM1121 277H1062V218H1121V277ZM1239 277H1180V218H1239V277ZM1357 277H1298V218H1357V277ZM1475 277H1416V218H1475V277ZM1593 277H1534V218H1593V277ZM1711 277H1652V218H1711V277ZM1829 277H1770V218H1829V277ZM1947 277H1888V218H1947V277ZM118 218H59V159H118V218ZM236 218H177V159H236V218ZM354 218H295V159H354V218ZM472 218H413V159H472V218ZM590 218H531V159H590V218ZM708 218H649V159H708V218ZM826 218H767V159H826V218ZM944 218H885V159H944V218ZM1062 218H1003V159H1062V218ZM1180 218H1121V159H1180V218ZM1298 218H1239V159H1298V218ZM1416 218H1357V159H1416V218ZM1534 218H1475V159H1534V218ZM1652 218H1593V159H1652V218ZM1770 218H1711V159H1770V218ZM1888 218H1829V159H1888V218ZM59 159H0V100H59V159ZM177 159H118V100H177V159ZM295 159H236V100H295V159ZM413 159H354V100H413V159ZM531 159H472V100H531V159ZM649 159H590V100H649V159ZM767 159H708V100H767V159ZM885 159H826V100H885V159ZM1003 159H944V100H1003V159ZM1121 159H1062V100H1121V159ZM1239 159H1180V100H1239V159ZM1357 159H1298V100H1357V159ZM1475 159H1416V100H1475V159ZM1593 159H1534V100H1593V159ZM1711 159H1652V100H1711V159ZM1829 159H1770V100H1829V159ZM1947 159H1888V100H1947V159ZM118 100H59V41H118V100ZM236 100H177V41H236V100ZM354 100H295V41H354V100ZM472 100H413V41H472V100ZM590 100H531V41H590V100ZM708 100H649V41H708V100ZM826 100H767V41H826V100ZM944 100H885V41H944V100ZM1062 100H1003V41H1062V100ZM1180 100H1121V41H1180V100ZM1298 100H1239V41H1298V100ZM1416 100H1357V41H1416V100ZM1534 100H1475V41H1534V100ZM1652 100H1593V41H1652V100ZM1770 100H1711V41H1770V100ZM1888 100H1829V41H1888V100ZM59 41H0V0H59V41ZM177 41H118V0H177V41ZM295 41H236V0H295V41ZM413 41H354V0H413V41ZM531 41H472V0H531V41ZM649 41H590V0H649V41ZM767 41H708V0H767V41ZM885 41H826V0H885V41ZM1003 41H944V0H1003V41ZM1121 41H1062V0H1121V41ZM1239 41H1180V0H1239V41ZM1357 41H1298V0H1357V41ZM1475 41H1416V0H1475V41ZM1593 41H1534V0H1593V41ZM1711 41H1652V0H1711V41ZM1829 41H1770V0H1829V41ZM1947 41H1888V0H1947V41Z" fill="#BDDDEA" fill-opacity="0.3" style="mix-blend-mode:plus-darker"/>
</g>
<defs>
<clipPath id="clip0_826_1146">
<rect width="1947" height="1085" fill="white"/>
</clipPath>
</defs>
</svg>
